<mxfile host="app.diagrams.net" modified="2023-11-02T01:43:23.300Z" agent="Mozilla/5.0 (Windows NT 10.0; Win64; x64; rv:109.0) Gecko/20100101 Firefox/118.0" etag="Pu47z_x86FNyiUb5bjAU" version="22.0.8" type="github">
  <diagram name="Page-1" id="svRof8xaVdq41FO36HCf">
    <mxGraphModel dx="880" dy="442" grid="1" gridSize="10" guides="1" tooltips="1" connect="1" arrows="1" fold="1" page="1" pageScale="1" pageWidth="850" pageHeight="1100" math="0" shadow="0">
      <root>
        <mxCell id="0" />
        <mxCell id="1" parent="0" />
        <mxCell id="uThudEPWGaxw_RlsGxZU-5" style="edgeStyle=orthogonalEdgeStyle;rounded=0;orthogonalLoop=1;jettySize=auto;html=1;exitX=0.5;exitY=1;exitDx=0;exitDy=0;entryX=0.5;entryY=0;entryDx=0;entryDy=0;" edge="1" parent="1" source="uThudEPWGaxw_RlsGxZU-1" target="uThudEPWGaxw_RlsGxZU-2">
          <mxGeometry relative="1" as="geometry" />
        </mxCell>
        <mxCell id="uThudEPWGaxw_RlsGxZU-1" value="star" style="rounded=1;whiteSpace=wrap;html=1;" vertex="1" parent="1">
          <mxGeometry x="305" y="80" width="120" height="60" as="geometry" />
        </mxCell>
        <mxCell id="uThudEPWGaxw_RlsGxZU-6" style="edgeStyle=orthogonalEdgeStyle;rounded=0;orthogonalLoop=1;jettySize=auto;html=1;exitX=0.5;exitY=1;exitDx=0;exitDy=0;" edge="1" parent="1" source="uThudEPWGaxw_RlsGxZU-2" target="uThudEPWGaxw_RlsGxZU-3">
          <mxGeometry relative="1" as="geometry" />
        </mxCell>
        <mxCell id="uThudEPWGaxw_RlsGxZU-2" value="bil" style="shape=parallelogram;perimeter=parallelogramPerimeter;whiteSpace=wrap;html=1;fixedSize=1;" vertex="1" parent="1">
          <mxGeometry x="300" y="170" width="120" height="60" as="geometry" />
        </mxCell>
        <mxCell id="uThudEPWGaxw_RlsGxZU-16" style="edgeStyle=orthogonalEdgeStyle;rounded=0;orthogonalLoop=1;jettySize=auto;html=1;exitX=0.5;exitY=1;exitDx=0;exitDy=0;entryX=0.5;entryY=0;entryDx=0;entryDy=0;" edge="1" parent="1" source="uThudEPWGaxw_RlsGxZU-3" target="uThudEPWGaxw_RlsGxZU-15">
          <mxGeometry relative="1" as="geometry" />
        </mxCell>
        <mxCell id="uThudEPWGaxw_RlsGxZU-3" value="&amp;nbsp;bil mod 2" style="rhombus;whiteSpace=wrap;html=1;" vertex="1" parent="1">
          <mxGeometry x="310" y="260" width="100" height="100" as="geometry" />
        </mxCell>
        <mxCell id="uThudEPWGaxw_RlsGxZU-22" style="edgeStyle=orthogonalEdgeStyle;rounded=0;orthogonalLoop=1;jettySize=auto;html=1;exitX=0.5;exitY=1;exitDx=0;exitDy=0;" edge="1" parent="1" source="uThudEPWGaxw_RlsGxZU-10">
          <mxGeometry relative="1" as="geometry">
            <mxPoint x="360" y="500" as="targetPoint" />
            <Array as="points">
              <mxPoint x="560" y="500" />
            </Array>
          </mxGeometry>
        </mxCell>
        <mxCell id="uThudEPWGaxw_RlsGxZU-10" value="bil=bil" style="shape=parallelogram;perimeter=parallelogramPerimeter;whiteSpace=wrap;html=1;fixedSize=1;" vertex="1" parent="1">
          <mxGeometry x="500" y="280" width="120" height="60" as="geometry" />
        </mxCell>
        <mxCell id="uThudEPWGaxw_RlsGxZU-20" style="edgeStyle=orthogonalEdgeStyle;rounded=0;orthogonalLoop=1;jettySize=auto;html=1;exitX=0.5;exitY=1;exitDx=0;exitDy=0;entryX=0.5;entryY=0;entryDx=0;entryDy=0;" edge="1" parent="1" source="uThudEPWGaxw_RlsGxZU-15" target="uThudEPWGaxw_RlsGxZU-18">
          <mxGeometry relative="1" as="geometry" />
        </mxCell>
        <mxCell id="uThudEPWGaxw_RlsGxZU-15" value="bil=bil ganjil" style="rounded=0;whiteSpace=wrap;html=1;" vertex="1" parent="1">
          <mxGeometry x="300" y="410" width="120" height="60" as="geometry" />
        </mxCell>
        <mxCell id="uThudEPWGaxw_RlsGxZU-18" value="end" style="rounded=1;whiteSpace=wrap;html=1;" vertex="1" parent="1">
          <mxGeometry x="300" y="520" width="120" height="60" as="geometry" />
        </mxCell>
        <mxCell id="uThudEPWGaxw_RlsGxZU-21" style="edgeStyle=orthogonalEdgeStyle;rounded=0;orthogonalLoop=1;jettySize=auto;html=1;exitX=1;exitY=0.5;exitDx=0;exitDy=0;" edge="1" parent="1" source="uThudEPWGaxw_RlsGxZU-3">
          <mxGeometry relative="1" as="geometry">
            <mxPoint x="510" y="310" as="targetPoint" />
          </mxGeometry>
        </mxCell>
      </root>
    </mxGraphModel>
  </diagram>
</mxfile>
